<svg width="954" height="221" viewBox="0 0 954 221" fill="none" xmlns="http://www.w3.org/2000/svg">
<path d="M0 217.687V-26.2892H20.6447C24.3795 -26.2892 27.7338 -25.2851 30.7077 -23.2771C33.7508 -21.2691 36.3444 -17.8554 38.4884 -13.0361C40.7016 -8.41766 42.396 -2.09236 43.5718 5.93977C44.7475 13.9719 45.3354 24.1125 45.3354 36.3614C45.3354 46.2008 44.8513 54.6346 43.883 61.6627C42.9839 68.6908 41.6353 74.3133 39.8371 78.5301C38.0389 82.5462 35.7911 85.257 33.0938 86.6627C36.4136 88.2691 39.1454 91.6827 41.2895 96.9036C43.5026 101.924 45.1279 108.55 46.1653 116.783C47.2719 125.016 47.8252 134.956 47.8252 146.602C47.8252 158.249 47.3065 168.59 46.2691 177.627C45.3008 186.462 43.8138 193.892 41.8082 199.916C39.8716 205.739 37.4164 210.157 34.4425 213.169C31.5377 216.181 28.1142 217.687 24.172 217.687H0ZM15.3539 186.361H21.1634C25.7973 186.361 28.9441 183.149 30.604 176.723C32.2639 170.096 33.0938 159.956 33.0938 146.301C33.0938 136.462 32.6788 128.53 31.8489 122.506C31.0881 116.281 29.7741 111.663 27.9067 108.651C26.1085 105.639 23.6878 104.133 20.6447 104.133H15.3539V186.361ZM15.3539 73.4096H20.541C23.5841 73.4096 25.9356 72.1044 27.5955 69.494C29.2553 66.8835 30.3965 62.8675 31.019 57.4458C31.7106 52.0241 32.0564 45.1968 32.0564 36.9639C32.0564 28.3293 31.5377 21.7028 30.5003 17.0844C29.532 12.2651 28.045 9.05221 26.0393 7.4458C24.0336 5.63857 21.4747 4.73495 18.3624 4.73495H15.3539V73.4096Z" fill="#E75D50"/>
<path d="M78.4957 221C72.5478 221 67.8102 217.787 64.283 211.361C60.7557 204.936 58.2313 195.699 56.7098 183.651C55.1882 171.602 54.4274 157.345 54.4274 140.88V49.6145C54.4274 33.1486 55.1882 19.0924 56.7098 7.4458C58.2313 -4.4016 60.7557 -13.4377 64.283 -19.6626C67.8102 -25.8875 72.5478 -29 78.4957 -29C84.5819 -29 89.354 -25.8875 92.8121 -19.6626C96.3394 -13.4377 98.8638 -4.4016 100.385 7.4458C101.976 19.0924 102.771 33.1486 102.771 49.6145V141.181C102.771 157.446 101.976 171.602 100.385 183.651C98.8638 195.498 96.3394 204.735 92.8121 211.361C89.354 217.787 84.5819 221 78.4957 221ZM78.4957 188.169C81.0547 188.169 82.922 186.562 84.0978 183.349C85.3427 180.137 86.1726 175.719 86.5876 170.096C87.0025 164.474 87.21 158.349 87.21 151.723V39.3735C87.21 32.5462 87.0025 26.4217 86.5876 21C86.1726 15.5783 85.3427 11.3615 84.0978 8.3494C82.922 5.13655 81.0547 3.53013 78.4957 3.53013C76.075 3.53013 74.2422 5.13655 72.9973 8.3494C71.7524 11.3615 70.9225 15.5783 70.5075 21C70.0925 26.4217 69.8851 32.5462 69.8851 39.3735V151.723C69.8851 158.349 70.058 164.474 70.4038 170.096C70.8187 175.719 71.6487 180.137 72.8936 183.349C74.1385 186.562 76.0059 188.169 78.4957 188.169Z" fill="#E75D50"/>
<path d="M135.085 221C128.86 221 124.019 217.687 120.561 211.06C117.103 204.434 114.717 194.996 113.403 182.747C112.088 170.498 111.431 155.839 111.431 138.771V-26.2892H126.37V143.892C126.37 151.522 126.543 158.751 126.889 165.578C127.235 172.205 128.03 177.627 129.275 181.843C130.589 185.859 132.526 187.867 135.085 187.867C137.782 187.867 139.719 185.859 140.894 181.843C142.139 177.627 142.935 172.205 143.28 165.578C143.695 158.751 143.903 151.522 143.903 143.892V-26.2892H158.738V138.771C158.738 155.839 158.081 170.498 156.767 182.747C155.453 194.996 153.067 204.434 149.609 211.06C146.22 217.687 141.378 221 135.085 221Z" fill="#E75D50"/>
<path d="M168.739 217.687V-26.2892H188.865C194.537 -26.2892 199.309 -24.2811 203.182 -20.265C207.124 -16.4498 210.098 -9.82328 212.104 -0.385536C214.178 9.05221 215.216 21.9036 215.216 38.1687C215.216 48.008 214.905 56.8434 214.282 64.6747C213.66 72.506 212.588 79.2329 211.066 84.8554C209.614 90.2771 207.574 94.494 204.945 97.506L216.668 217.687H201.314L191.148 105.94H184.093V217.687H168.739ZM184.093 77.9277H188.865C191.839 77.9277 194.191 76.7229 195.92 74.3133C197.718 71.7028 198.998 67.6868 199.758 62.2651C200.519 56.6426 200.899 49.5141 200.899 40.8795C200.899 28.6305 200.104 19.494 198.513 13.4699C196.992 7.24498 194.052 4.13253 189.695 4.13253H184.093V77.9277Z" fill="#E75D50"/>
<path d="M220.564 217.687L237.37 -26.2892H253.761L270.567 217.687H256.355L253.035 161.361H238.407L234.984 217.687H220.564ZM239.963 133.048H251.375L245.669 30.6386L239.963 133.048Z" fill="#E75D50"/>
<path d="M297.499 221C292.45 221 288.231 218.189 284.842 212.566C281.454 206.743 278.895 198.309 277.165 187.265C275.436 176.221 274.468 162.667 274.261 146.602L287.436 139.072C287.574 148.51 287.955 156.843 288.577 164.072C289.269 171.301 290.272 176.924 291.586 180.94C292.969 184.755 294.767 186.663 296.98 186.663C299.47 186.663 301.234 184.554 302.271 180.337C303.309 175.92 303.827 170.398 303.827 163.771C303.827 153.129 302.997 144.394 301.337 137.566C299.678 130.739 297.464 123.912 294.698 117.084L284.116 89.9759C281.142 82.5462 278.756 74.3133 276.958 65.2771C275.229 56.0402 274.364 44.6948 274.364 31.241C274.364 11.9639 276.301 -2.89557 280.174 -13.3373C284.047 -23.7791 289.338 -29 296.047 -29C299.989 -29 303.274 -27.1928 305.902 -23.5783C308.53 -20.1647 310.605 -15.3454 312.127 -9.12047C313.717 -2.89558 314.893 4.23293 315.654 12.2651C316.415 20.0964 316.899 28.4297 317.106 37.2651L304.035 43.8916C303.896 36.2611 303.585 29.4337 303.101 23.4096C302.686 17.3856 301.891 12.6667 300.715 9.25302C299.608 5.83936 297.949 4.13253 295.735 4.13253C293.453 4.13253 291.689 6.34137 290.445 10.759C289.269 14.9759 288.681 20.2972 288.681 26.7229C288.681 34.9558 289.269 41.7831 290.445 47.2048C291.62 52.4257 293.315 57.8474 295.528 63.4699L306.006 90.2771C309.464 98.7108 312.403 108.651 314.824 120.096C317.314 131.341 318.559 144.996 318.559 161.06C318.559 172.707 317.66 183.048 315.861 192.084C314.132 201.12 311.677 208.249 308.496 213.47C305.383 218.49 301.718 221 297.499 221Z" fill="#E75D50"/>
<path d="M345.472 221C340.423 221 336.204 218.189 332.815 212.566C329.426 206.743 326.867 198.309 325.138 187.265C323.409 176.221 322.441 162.667 322.233 146.602L335.409 139.072C335.547 148.51 335.927 156.843 336.55 164.072C337.242 171.301 338.244 176.924 339.558 180.94C340.942 184.755 342.74 186.663 344.953 186.663C347.443 186.663 349.206 184.554 350.244 180.337C351.281 175.92 351.8 170.398 351.8 163.771C351.8 153.129 350.97 144.394 349.31 137.566C347.65 130.739 345.437 123.912 342.671 117.084L332.089 89.9759C329.115 82.5462 326.729 74.3133 324.931 65.2771C323.202 56.0402 322.337 44.6948 322.337 31.241C322.337 11.9639 324.274 -2.89557 328.147 -13.3373C332.02 -23.7791 337.311 -29 344.019 -29C347.962 -29 351.247 -27.1928 353.875 -23.5783C356.503 -20.1647 358.578 -15.3454 360.099 -9.12047C361.69 -2.89558 362.866 4.23293 363.627 12.2651C364.387 20.0964 364.872 28.4297 365.079 37.2651L352.008 43.8916C351.869 36.2611 351.558 29.4337 351.074 23.4096C350.659 17.3856 349.863 12.6667 348.688 9.25302C347.581 5.83936 345.921 4.13253 343.708 4.13253C341.426 4.13253 339.662 6.34137 338.417 10.759C337.241 14.9759 336.654 20.2972 336.654 26.7229C336.654 34.9558 337.241 41.7831 338.417 47.2048C339.593 52.4257 341.287 57.8474 343.501 63.4699L353.979 90.2771C357.437 98.7108 360.376 108.651 362.797 120.096C365.287 131.341 366.531 144.996 366.531 161.06C366.531 172.707 365.632 183.048 363.834 192.084C362.105 201.12 359.65 208.249 356.468 213.47C353.356 218.49 349.691 221 345.472 221Z" fill="#E75D50"/>
<path d="M373.912 217.687V-26.2892H389.058V217.687H373.912Z" fill="#E75D50"/>
<path d="M418.89 217.687L435.696 -26.2892H452.087L468.894 217.687H454.681L451.361 161.361H436.733L433.31 217.687H418.89ZM438.29 133.048H449.701L443.995 30.6386L438.29 133.048Z" fill="#E75D50"/>
<path d="M475.27 217.687V-26.2892H495.914C499.649 -26.2892 503.003 -25.2851 505.977 -23.2771C509.02 -21.2691 511.614 -17.8554 513.758 -13.0361C515.971 -8.41766 517.666 -2.09236 518.841 5.93977C520.017 13.9719 520.605 24.1125 520.605 36.3614C520.605 46.2008 520.121 54.6346 519.153 61.6627C518.253 68.6908 516.905 74.3133 515.107 78.5301C513.308 82.5462 511.061 85.257 508.363 86.6627C511.683 88.2691 514.415 91.6827 516.559 96.9036C518.772 101.924 520.398 108.55 521.435 116.783C522.542 125.016 523.095 134.956 523.095 146.602C523.095 158.249 522.576 168.59 521.539 177.627C520.57 186.462 519.083 193.892 517.078 199.916C515.141 205.739 512.686 210.157 509.712 213.169C506.807 216.181 503.384 217.687 499.442 217.687H475.27ZM490.623 186.361H496.433C501.067 186.361 504.214 183.149 505.874 176.723C507.534 170.096 508.363 159.956 508.363 146.301C508.363 136.462 507.948 128.53 507.119 122.506C506.358 116.281 505.044 111.663 503.176 108.651C501.378 105.639 498.957 104.133 495.914 104.133H490.623V186.361ZM490.623 73.4096H495.811C498.854 73.4096 501.205 72.1044 502.865 69.494C504.525 66.8835 505.666 62.8675 506.289 57.4458C506.98 52.0241 507.326 45.1968 507.326 36.9639C507.326 28.3293 506.807 21.7028 505.77 17.0844C504.802 12.2651 503.315 9.05221 501.309 7.4458C499.303 5.63857 496.744 4.73495 493.632 4.73495H490.623V73.4096Z" fill="#E75D50"/>
<path d="M530.942 217.687V-26.2892H550.757C557.604 -26.2892 562.929 -23.5783 566.733 -18.1566C570.606 -12.7349 573.338 -4.4016 574.929 6.84338C576.589 18.0884 577.419 32.3454 577.419 49.6145V138.771C577.419 156.442 576.589 171.201 574.929 183.048C573.338 194.695 570.641 203.43 566.837 209.253C563.102 214.876 557.95 217.687 551.379 217.687H530.942ZM546.296 186.663H550.964C554.491 186.663 557.016 184.855 558.537 181.241C560.059 177.627 560.993 172.406 561.339 165.578C561.684 158.55 561.857 150.016 561.857 139.976V46.6024C561.857 36.7631 561.615 28.8313 561.131 22.8072C560.647 16.7831 559.644 12.3655 558.122 9.55422C556.601 6.74298 554.146 5.33735 550.757 5.33735H546.296V186.663Z" fill="#E75D50"/>
<path d="M583.65 56.5422L582.093 42.6868C584.445 42.486 586.001 39.7751 586.762 34.5542C587.592 29.3333 588.007 21.9036 588.007 12.2651H581.575V-26.2892H595.165C595.165 -20.8675 595.165 -15.4458 595.165 -10.0241C595.165 -4.8032 595.13 0.216879 595.061 5.03615C594.923 21.502 594.058 34.1526 592.468 42.988C590.877 51.6225 587.938 56.1406 583.65 56.5422Z" fill="#E75D50"/>
<path d="M591.43 217.687L608.236 -26.2892H624.628L641.434 217.687H627.221L623.902 161.361H609.274L605.85 217.687H591.43ZM610.83 133.048H622.242L616.536 30.6386L610.83 133.048Z" fill="#E75D50"/>
<path d="M647.81 217.687V-26.2892H663.164V186.964H683.497V217.687H647.81Z" fill="#E75D50"/>
<path d="M683.666 143.59V115.578H708.772V143.59H683.666Z" fill="#E75D50"/>
<path d="M716.599 217.687L718.052 -26.2892H733.924L745.855 142.687L758.304 -26.2892H773.658L775.214 217.687H763.802L762.557 48.1084L750.627 217.687H741.394L729.256 47.506L728.115 217.687H716.599Z" fill="#E75D50"/>
<path d="M781.295 217.687L798.101 -26.2892H814.492L831.299 217.687H817.086L813.766 161.361H799.139L795.715 217.687H781.295ZM800.695 133.048H812.106L806.401 30.6386L800.695 133.048Z" fill="#E75D50"/>
<path d="M837.675 217.687V-26.2892H853.029V186.964H873.362V217.687H837.675Z" fill="#E75D50"/>
<path d="M879.68 217.687V-26.2892H894.826V217.687H879.68Z" fill="#E75D50"/>
<path d="M905.76 217.687V-26.2892H921.114V80.9398L937.712 -26.2892H952.34L936.26 82.747L954 217.687H938.75L924.641 106.542L921.114 125.217V217.687H905.76Z" fill="#E75D50"/>
</svg>
