<svg width="954" height="217" viewBox="0 0 954 217" fill="none" xmlns="http://www.w3.org/2000/svg">
<path d="M0 246.687V2.71084H20.6447C24.3795 2.71084 27.7338 3.71486 30.7077 5.72291C33.7508 7.73094 36.3444 11.1446 38.4884 15.9639C40.7016 20.5823 42.396 26.9076 43.5718 34.9398C44.7475 42.9719 45.3354 53.1124 45.3354 65.3614C45.3354 75.2008 44.8513 83.6345 43.883 90.6627C42.9839 97.6908 41.6353 103.313 39.8371 107.53C38.0389 111.546 35.7911 114.257 33.0938 115.663C36.4136 117.269 39.1454 120.683 41.2895 125.904C43.5026 130.924 45.1279 137.55 46.1653 145.783C47.2719 154.016 47.8252 163.956 47.8252 175.602C47.8252 187.249 47.3065 197.59 46.2691 206.627C45.3008 215.462 43.8138 222.892 41.8082 228.916C39.8716 234.739 37.4164 239.157 34.4425 242.169C31.5377 245.181 28.1142 246.687 24.172 246.687H0ZM15.3539 215.361H21.1634C25.7973 215.361 28.9441 212.149 30.604 205.723C32.2639 199.096 33.0938 188.956 33.0938 175.301C33.0938 165.462 32.6788 157.53 31.8489 151.506C31.0881 145.281 29.7741 140.663 27.9067 137.651C26.1085 134.639 23.6878 133.133 20.6447 133.133H15.3539V215.361ZM15.3539 102.41H20.541C23.5841 102.41 25.9356 101.104 27.5955 98.494C29.2553 95.8835 30.3965 91.8675 31.019 86.4458C31.7106 81.0241 32.0564 74.1968 32.0564 65.9639C32.0564 57.3293 31.5377 50.7028 30.5003 46.0844C29.532 41.2651 28.045 38.0522 26.0393 36.4458C24.0336 34.6386 21.4747 33.735 18.3624 33.735H15.3539V102.41Z" fill="#F6F2EA"/>
<path d="M78.4957 250C72.5478 250 67.8102 246.787 64.283 240.361C60.7557 233.936 58.2313 224.699 56.7098 212.651C55.1882 200.602 54.4274 186.345 54.4274 169.88V78.6145C54.4274 62.1486 55.1882 48.0924 56.7098 36.4458C58.2313 24.5984 60.7557 15.5623 64.283 9.33735C67.8102 3.11245 72.5478 0 78.4957 0C84.5819 0 89.354 3.11245 92.8121 9.33735C96.3394 15.5623 98.8638 24.5984 100.385 36.4458C101.976 48.0924 102.771 62.1486 102.771 78.6145V170.181C102.771 186.446 101.976 200.602 100.385 212.651C98.8638 224.498 96.3394 233.735 92.8121 240.361C89.354 246.787 84.5819 250 78.4957 250ZM78.4957 217.169C81.0547 217.169 82.922 215.562 84.0978 212.349C85.3427 209.137 86.1726 204.719 86.5876 199.096C87.0025 193.474 87.21 187.349 87.21 180.723V68.3735C87.21 61.5462 87.0025 55.4217 86.5876 50C86.1726 44.5783 85.3427 40.3615 84.0978 37.3494C82.922 34.1366 81.0547 32.5301 78.4957 32.5301C76.075 32.5301 74.2422 34.1366 72.9973 37.3494C71.7524 40.3615 70.9225 44.5783 70.5075 50C70.0925 55.4217 69.8851 61.5462 69.8851 68.3735V180.723C69.8851 187.349 70.058 193.474 70.4038 199.096C70.8187 204.719 71.6487 209.137 72.8936 212.349C74.1385 215.562 76.0059 217.169 78.4957 217.169Z" fill="#F6F2EA"/>
<path d="M135.085 250C128.86 250 124.019 246.687 120.561 240.06C117.103 233.434 114.717 223.996 113.403 211.747C112.088 199.498 111.431 184.839 111.431 167.771V2.71084H126.37V172.892C126.37 180.522 126.543 187.751 126.889 194.578C127.235 201.205 128.03 206.627 129.275 210.843C130.589 214.859 132.526 216.867 135.085 216.867C137.782 216.867 139.719 214.859 140.894 210.843C142.139 206.627 142.935 201.205 143.28 194.578C143.695 187.751 143.903 180.522 143.903 172.892V2.71084H158.738V167.771C158.738 184.839 158.081 199.498 156.767 211.747C155.453 223.996 153.067 233.434 149.609 240.06C146.22 246.687 141.378 250 135.085 250Z" fill="#F6F2EA"/>
<path d="M168.739 246.687V2.71084H188.865C194.537 2.71084 199.309 4.71888 203.182 8.73495C207.124 12.5502 210.098 19.1767 212.104 28.6145C214.178 38.0522 215.216 50.9036 215.216 67.1687C215.216 77.008 214.905 85.8434 214.282 93.6747C213.66 101.506 212.588 108.233 211.066 113.855C209.614 119.277 207.574 123.494 204.945 126.506L216.668 246.687H201.314L191.148 134.94H184.093V246.687H168.739ZM184.093 106.928H188.865C191.839 106.928 194.191 105.723 195.92 103.313C197.718 100.703 198.998 96.6868 199.758 91.2651C200.519 85.6426 200.899 78.5141 200.899 69.8795C200.899 57.6305 200.104 48.494 198.513 42.4699C196.992 36.245 194.052 33.1325 189.695 33.1325H184.093V106.928Z" fill="#F6F2EA"/>
<path d="M220.564 246.687L237.37 2.71084H253.761L270.567 246.687H256.355L253.035 190.361H238.407L234.984 246.687H220.564ZM239.963 162.048H251.375L245.669 59.6386L239.963 162.048Z" fill="#F6F2EA"/>
<path d="M297.499 250C292.45 250 288.231 247.189 284.842 241.566C281.454 235.743 278.895 227.309 277.165 216.265C275.436 205.221 274.468 191.667 274.261 175.602L287.436 168.072C287.574 177.51 287.955 185.843 288.577 193.072C289.269 200.301 290.272 205.924 291.586 209.94C292.969 213.755 294.767 215.663 296.98 215.663C299.47 215.663 301.234 213.554 302.271 209.337C303.309 204.92 303.827 199.398 303.827 192.771C303.827 182.129 302.997 173.394 301.337 166.566C299.678 159.739 297.464 152.912 294.698 146.084L284.116 118.976C281.142 111.546 278.756 103.313 276.958 94.2771C275.229 85.0402 274.364 73.6948 274.364 60.241C274.364 40.9639 276.301 26.1044 280.174 15.6627C284.047 5.22089 289.338 0 296.047 0C299.989 0 303.274 1.80723 305.902 5.42169C308.53 8.83535 310.605 13.6546 312.127 19.8795C313.717 26.1044 314.893 33.2329 315.654 41.2651C316.415 49.0964 316.899 57.4297 317.106 66.2651L304.035 72.8916C303.896 65.2611 303.585 58.4337 303.101 52.4096C302.686 46.3855 301.891 41.6667 300.715 38.253C299.608 34.8394 297.949 33.1325 295.735 33.1325C293.453 33.1325 291.689 35.3414 290.445 39.759C289.269 43.9759 288.681 49.2972 288.681 55.7229C288.681 63.9558 289.269 70.7831 290.445 76.2048C291.62 81.4257 293.315 86.8474 295.528 92.4699L306.006 119.277C309.464 127.711 312.403 137.651 314.824 149.096C317.314 160.341 318.559 173.996 318.559 190.06C318.559 201.707 317.66 212.048 315.861 221.084C314.132 230.12 311.677 237.249 308.496 242.47C305.383 247.49 301.718 250 297.499 250Z" fill="#F6F2EA"/>
<path d="M345.472 250C340.423 250 336.204 247.189 332.815 241.566C329.426 235.743 326.867 227.309 325.138 216.265C323.409 205.221 322.441 191.667 322.233 175.602L335.409 168.072C335.547 177.51 335.927 185.843 336.55 193.072C337.242 200.301 338.244 205.924 339.558 209.94C340.942 213.755 342.74 215.663 344.953 215.663C347.443 215.663 349.206 213.554 350.244 209.337C351.281 204.92 351.8 199.398 351.8 192.771C351.8 182.129 350.97 173.394 349.31 166.566C347.65 159.739 345.437 152.912 342.671 146.084L332.089 118.976C329.115 111.546 326.729 103.313 324.931 94.2771C323.202 85.0402 322.337 73.6948 322.337 60.241C322.337 40.9639 324.274 26.1044 328.147 15.6627C332.02 5.22089 337.311 0 344.019 0C347.962 0 351.247 1.80723 353.875 5.42169C356.503 8.83535 358.578 13.6546 360.099 19.8795C361.69 26.1044 362.866 33.2329 363.627 41.2651C364.387 49.0964 364.872 57.4297 365.079 66.2651L352.008 72.8916C351.869 65.2611 351.558 58.4337 351.074 52.4096C350.659 46.3855 349.863 41.6667 348.688 38.253C347.581 34.8394 345.921 33.1325 343.708 33.1325C341.426 33.1325 339.662 35.3414 338.417 39.759C337.241 43.9759 336.654 49.2972 336.654 55.7229C336.654 63.9558 337.241 70.7831 338.417 76.2048C339.593 81.4257 341.287 86.8474 343.501 92.4699L353.979 119.277C357.437 127.711 360.376 137.651 362.797 149.096C365.287 160.341 366.531 173.996 366.531 190.06C366.531 201.707 365.632 212.048 363.834 221.084C362.105 230.12 359.65 237.249 356.468 242.47C353.356 247.49 349.691 250 345.472 250Z" fill="#F6F2EA"/>
<path d="M373.912 246.687V2.71084H389.058V246.687H373.912Z" fill="#F6F2EA"/>
<path d="M418.89 246.687L435.696 2.71084H452.087L468.894 246.687H454.681L451.361 190.361H436.733L433.31 246.687H418.89ZM438.29 162.048H449.701L443.995 59.6386L438.29 162.048Z" fill="#F6F2EA"/>
<path d="M475.27 246.687V2.71084H495.914C499.649 2.71084 503.003 3.71486 505.977 5.72291C509.02 7.73094 511.614 11.1446 513.758 15.9639C515.971 20.5823 517.666 26.9076 518.841 34.9398C520.017 42.9719 520.605 53.1124 520.605 65.3614C520.605 75.2008 520.121 83.6345 519.153 90.6627C518.253 97.6908 516.905 103.313 515.107 107.53C513.308 111.546 511.061 114.257 508.363 115.663C511.683 117.269 514.415 120.683 516.559 125.904C518.772 130.924 520.398 137.55 521.435 145.783C522.542 154.016 523.095 163.956 523.095 175.602C523.095 187.249 522.576 197.59 521.539 206.627C520.57 215.462 519.083 222.892 517.078 228.916C515.141 234.739 512.686 239.157 509.712 242.169C506.807 245.181 503.384 246.687 499.442 246.687H475.27ZM490.623 215.361H496.433C501.067 215.361 504.214 212.149 505.874 205.723C507.534 199.096 508.363 188.956 508.363 175.301C508.363 165.462 507.948 157.53 507.119 151.506C506.358 145.281 505.044 140.663 503.176 137.651C501.378 134.639 498.957 133.133 495.914 133.133H490.623V215.361ZM490.623 102.41H495.811C498.854 102.41 501.205 101.104 502.865 98.494C504.525 95.8835 505.666 91.8675 506.289 86.4458C506.98 81.0241 507.326 74.1968 507.326 65.9639C507.326 57.3293 506.807 50.7028 505.77 46.0844C504.802 41.2651 503.315 38.0522 501.309 36.4458C499.303 34.6386 496.744 33.735 493.632 33.735H490.623V102.41Z" fill="#F6F2EA"/>
<path d="M530.942 246.687V2.71084H550.757C557.604 2.71084 562.929 5.42169 566.733 10.8434C570.606 16.2651 573.338 24.5984 574.929 35.8434C576.589 47.0884 577.419 61.3454 577.419 78.6145V167.771C577.419 185.442 576.589 200.201 574.929 212.048C573.338 223.695 570.641 232.43 566.837 238.253C563.102 243.875 557.95 246.687 551.379 246.687H530.942ZM546.296 215.663H550.964C554.491 215.663 557.016 213.855 558.537 210.241C560.059 206.627 560.993 201.406 561.339 194.578C561.684 187.55 561.857 179.016 561.857 168.976V75.6024C561.857 65.7631 561.615 57.8313 561.131 51.8072C560.647 45.7831 559.644 41.3655 558.122 38.5542C556.601 35.743 554.146 34.3374 550.757 34.3374H546.296V215.663Z" fill="#F6F2EA"/>
<path d="M583.65 85.5422L582.093 71.6867C584.445 71.4859 586.001 68.7751 586.762 63.5542C587.592 58.3333 588.007 50.9036 588.007 41.2651H581.575V2.71084H595.165C595.165 8.13253 595.165 13.5542 595.165 18.9759C595.165 24.1968 595.13 29.2169 595.061 34.0362C594.923 50.502 594.058 63.1526 592.468 71.988C590.877 80.6225 587.938 85.1406 583.65 85.5422Z" fill="#F6F2EA"/>
<path d="M591.43 246.687L608.236 2.71084H624.628L641.434 246.687H627.221L623.902 190.361H609.274L605.85 246.687H591.43ZM610.83 162.048H622.242L616.536 59.6386L610.83 162.048Z" fill="#F6F2EA"/>
<path d="M647.81 246.687V2.71084H663.164V215.964H683.497V246.687H647.81Z" fill="#F6F2EA"/>
<path d="M683.666 172.59V144.578H708.772V172.59H683.666Z" fill="#F6F2EA"/>
<path d="M716.599 246.687L718.052 2.71084H733.924L745.855 171.687L758.304 2.71084H773.658L775.214 246.687H763.802L762.557 77.1084L750.627 246.687H741.394L729.256 76.506L728.115 246.687H716.599Z" fill="#F6F2EA"/>
<path d="M781.295 246.687L798.101 2.71084H814.492L831.299 246.687H817.086L813.766 190.361H799.139L795.715 246.687H781.295ZM800.695 162.048H812.106L806.401 59.6386L800.695 162.048Z" fill="#F6F2EA"/>
<path d="M837.675 246.687V2.71084H853.029V215.964H873.362V246.687H837.675Z" fill="#F6F2EA"/>
<path d="M879.68 246.687V2.71084H894.826V246.687H879.68Z" fill="#F6F2EA"/>
<path d="M905.76 246.687V2.71084H921.114V109.94L937.712 2.71084H952.34L936.26 111.747L954 246.687H938.75L924.641 135.542L921.114 154.217V246.687H905.76Z" fill="#F6F2EA"/>
</svg>
