<svg width="69" height="17" viewBox="0 0 69 17" fill="none" xmlns="http://www.w3.org/2000/svg">
<path d="M46.0001 17L36.0001 1.71661e-05L50.0395 0C52.2489 0 54.3309 0.0559672 56.2854 0.167902C58.2823 0.279836 60.0456 0.496708 61.5752 0.818519C63.1048 1.12634 64.2945 1.57407 65.1442 2.16173C66.0365 2.73539 66.4826 3.49794 66.4826 4.44938C66.4826 5.13498 66.164 5.71564 65.5266 6.19136C64.9318 6.65309 64.0608 7.02387 62.9136 7.3037C61.8089 7.58354 60.4705 7.77243 58.8984 7.87037C60.8954 7.95432 62.5737 8.17119 63.9333 8.52099C65.2929 8.85679 66.3127 9.31152 66.9925 9.88518C67.7148 10.4588 68.076 11.1514 68.076 11.963C68.076 12.8444 67.7148 13.607 66.9925 14.2506C66.3127 14.8802 65.3142 15.3979 63.997 15.8037C62.6799 16.2095 61.0441 16.5103 59.0896 16.7062C57.1776 16.9021 54.9682 17 52.4614 17H46.0001ZM48.0001 14.3765H50.4219C52.9287 14.3765 54.6495 14.1667 55.5843 13.7469C56.5615 13.3272 57.0502 12.7115 57.0502 11.9C57.0502 11.2564 56.8377 10.7457 56.4128 10.3679C55.9879 9.99012 55.2869 9.71728 54.3096 9.54938C53.3324 9.36749 52.0152 9.27654 50.3582 9.27654H48.0001V14.3765ZM48.0001 6.8H50.2307C51.9728 6.8 53.2899 6.71605 54.1822 6.54815C55.0744 6.36626 55.6693 6.10741 55.9667 5.77161C56.3066 5.4358 56.4766 5.03004 56.4766 4.55432C56.4766 4.10658 56.2216 3.7358 55.7118 3.44198C55.2444 3.13416 54.5221 2.90329 53.5448 2.74938C52.6101 2.59547 51.4204 2.51852 49.9758 2.51852H48.0001V6.8Z" fill="#E75D50"/>
<path d="M0.257324 17L12.0494 1.71661e-05H17.6578L7.00003 17H0.257324Z" fill="#E75D50"/>
<path d="M10.6239 17L20.375 1.71661e-05H33.3765L43.0001 17H32.4842L30.7634 13.4111H23.1792L21.3947 17H10.6239ZM24.1989 11.1655H29.68L26.9394 4.53335L24.1989 11.1655Z" fill="#E75D50"/>
</svg>
